{
	"asset":{
		"generator":"Khronos glTF Blender I/O v5.0.21",
		"version":"2.0"
	},
	"scene":0,
	"scenes":[
		{
			"name":"__YanEngineExport",
			"nodes":[
				0,
				1,
				2,
				3,
				4
			]
		}
	],
	"nodes":[
		{
			"mesh":0,
			"name":"Backdrop.001"
		},
		{
			"mesh":1,
			"name":"Floor.001"
		},
		{
			"mesh":2,
			"name":"Game_Title.001"
		},
		{
			"mesh":3,
			"name":"Start_Instruction.001"
		},
		{
			"mesh":4,
			"name":"Start_Platform.001"
		}
	],
	"materials":[
		{
			"doubleSided":true,
			"name":"Title Backdrop",
			"pbrMetallicRoughness":{
				"baseColorFactor":[
					0.03500000014901161,
					0.054999999701976776,
					0.07999999821186066,
					1
				],
				"metallicFactor":0,
				"roughnessFactor":0.699999988079071
			}
		},
		{
			"doubleSided":true,
			"name":"Title Floor",
			"pbrMetallicRoughness":{
				"baseColorFactor":[
					0.09000000357627869,
					0.11999999731779099,
					0.1599999964237213,
					1
				],
				"metallicFactor":0,
				"roughnessFactor":0.699999988079071
			}
		},
		{
			"doubleSided":true,
			"name":"Title Text",
			"pbrMetallicRoughness":{
				"baseColorFactor":[
					0.9200000166893005,
					0.949999988079071,
					1,
					1
				],
				"metallicFactor":0,
				"roughnessFactor":0.699999988079071
			}
		},
		{
			"doubleSided":true,
			"name":"Start Plinth",
			"pbrMetallicRoughness":{
				"baseColorFactor":[
					0.1599999964237213,
					0.23000000417232513,
					0.30000001192092896,
					1
				],
				"metallicFactor":0,
				"roughnessFactor":0.699999988079071
			}
		}
	],
	"meshes":[
		{
			"name":"Cube.003",
			"primitives":[
				{
					"attributes":{
						"POSITION":0,
						"NORMAL":1,
						"TEXCOORD_0":2
					},
					"indices":3,
					"material":0
				}
			]
		},
		{
			"name":"Cube.004",
			"primitives":[
				{
					"attributes":{
						"POSITION":4,
						"NORMAL":5,
						"TEXCOORD_0":6
					},
					"indices":3,
					"material":1
				}
			]
		},
		{
			"name":"Game_Title.001",
			"primitives":[
				{
					"attributes":{
						"POSITION":7,
						"NORMAL":8,
						"TEXCOORD_0":9
					},
					"indices":10,
					"material":2
				}
			]
		},
		{
			"name":"Start_Instruction.001",
			"primitives":[
				{
					"attributes":{
						"POSITION":11,
						"NORMAL":12,
						"TEXCOORD_0":13
					},
					"indices":14,
					"material":2
				}
			]
		},
		{
			"name":"Cube.005",
			"primitives":[
				{
					"attributes":{
						"POSITION":15,
						"NORMAL":16,
						"TEXCOORD_0":17
					},
					"indices":3,
					"material":3
				}
			]
		}
	],
	"accessors":[
		{
			"bufferView":0,
			"componentType":5126,
			"count":24,
			"max":[
				14,
				8,
				14.25
			],
			"min":[
				-14,
				0,
				13.75
			],
			"type":"VEC3"
		},
		{
			"bufferView":1,
			"componentType":5126,
			"count":24,
			"type":"VEC3"
		},
		{
			"bufferView":2,
			"componentType":5126,
			"count":24,
			"type":"VEC2"
		},
		{
			"bufferView":3,
			"componentType":5123,
			"count":36,
			"type":"SCALAR"
		},
		{
			"bufferView":4,
			"componentType":5126,
			"count":24,
			"max":[
				14,
				0,
				22
			],
			"min":[
				-14,
				-0.5,
				-6
			],
			"type":"VEC3"
		},
		{
			"bufferView":5,
			"componentType":5126,
			"count":24,
			"type":"VEC3"
		},
		{
			"bufferView":6,
			"componentType":5126,
			"count":24,
			"type":"VEC2"
		},
		{
			"bufferView":7,
			"componentType":5126,
			"count":1611,
			"max":[
				4.704300403594971,
				6.174200057983398,
				12.068000793457031
			],
			"min":[
				-1.958700180053711,
				4.976679801940918,
				11.932000160217285
			],
			"type":"VEC3"
		},
		{
			"bufferView":8,
			"componentType":5126,
			"count":1611,
			"type":"VEC3"
		},
		{
			"bufferView":9,
			"componentType":5126,
			"count":1611,
			"type":"VEC2"
		},
		{
			"bufferView":10,
			"componentType":5123,
			"count":7416,
			"type":"SCALAR"
		},
		{
			"bufferView":11,
			"componentType":5126,
			"count":7611,
			"max":[
				-1.3111237287521362,
				1.139713168144226,
				9.848000526428223
			],
			"min":[
				-5.311200141906738,
				0.7876459956169128,
				9.711999893188477
			],
			"type":"VEC3"
		},
		{
			"bufferView":12,
			"componentType":5126,
			"count":7611,
			"type":"VEC3"
		},
		{
			"bufferView":13,
			"componentType":5126,
			"count":7611,
			"type":"VEC2"
		},
		{
			"bufferView":14,
			"componentType":5123,
			"count":34260,
			"type":"SCALAR"
		},
		{
			"bufferView":15,
			"componentType":5126,
			"count":24,
			"max":[
				-0.6999998092651367,
				1.399999976158142,
				11.800000190734863
			],
			"min":[
				-7.699999809265137,
				0,
				9.800000190734863
			],
			"type":"VEC3"
		},
		{
			"bufferView":16,
			"componentType":5126,
			"count":24,
			"type":"VEC3"
		},
		{
			"bufferView":17,
			"componentType":5126,
			"count":24,
			"type":"VEC2"
		}
	],
	"bufferViews":[
		{
			"buffer":0,
			"byteLength":288,
			"byteOffset":0,
			"target":34962
		},
		{
			"buffer":0,
			"byteLength":288,
			"byteOffset":288,
			"target":34962
		},
		{
			"buffer":0,
			"byteLength":192,
			"byteOffset":576,
			"target":34962
		},
		{
			"buffer":0,
			"byteLength":72,
			"byteOffset":768,
			"target":34963
		},
		{
			"buffer":0,
			"byteLength":288,
			"byteOffset":840,
			"target":34962
		},
		{
			"buffer":0,
			"byteLength":288,
			"byteOffset":1128,
			"target":34962
		},
		{
			"buffer":0,
			"byteLength":192,
			"byteOffset":1416,
			"target":34962
		},
		{
			"buffer":0,
			"byteLength":19332,
			"byteOffset":1608,
			"target":34962
		},
		{
			"buffer":0,
			"byteLength":19332,
			"byteOffset":20940,
			"target":34962
		},
		{
			"buffer":0,
			"byteLength":12888,
			"byteOffset":40272,
			"target":34962
		},
		{
			"buffer":0,
			"byteLength":14832,
			"byteOffset":53160,
			"target":34963
		},
		{
			"buffer":0,
			"byteLength":91332,
			"byteOffset":67992,
			"target":34962
		},
		{
			"buffer":0,
			"byteLength":91332,
			"byteOffset":159324,
			"target":34962
		},
		{
			"buffer":0,
			"byteLength":60888,
			"byteOffset":250656,
			"target":34962
		},
		{
			"buffer":0,
			"byteLength":68520,
			"byteOffset":311544,
			"target":34963
		},
		{
			"buffer":0,
			"byteLength":288,
			"byteOffset":380064,
			"target":34962
		},
		{
			"buffer":0,
			"byteLength":288,
			"byteOffset":380352,
			"target":34962
		},
		{
			"buffer":0,
			"byteLength":192,
			"byteOffset":380640,
			"target":34962
		}
	],
	"buffers":[
		{
			"byteLength":380832,
			"uri":"title.bin"
		}
	]
}
